/* XPM */
static char *result[] = {
/* columns rows colors chars-per-pixel */
"32 32 158 2 ",
"   c #201E1E",
".  c #211E1E",
"X  c #211F1E",
"o  c #211F1F",
"O  c #221F1E",
"+  c #22201E",
"@  c #24211E",
"#  c #26231E",
"$  c #2A261E",
"%  c #2E291F",
"&  c #322C1F",
"*  c #38301F",
"=  c #38311F",
"-  c #39311F",
";  c #39321F",
":  c #3C341F",
">  c #3F361F",
",  c #222020",
"<  c #232121",
"1  c #242222",
"2  c #252323",
"3  c #262424",
"4  c #282626",
"5  c #292727",
"6  c #2A2828",
"7  c #2B2929",
"8  c #2D2B2B",
"9  c #2F2D2D",
"0  c #323030",
"q  c #333232",
"w  c #353333",
"e  c #363434",
"r  c #363535",
"t  c #3A3939",
"y  c #3D3B3B",
"u  c #423920",
"i  c #443A20",
"p  c #453B20",
"a  c #473D20",
"s  c #403E3E",
"d  c #403F3F",
"f  c #413F3F",
"g  c #4E4220",
"h  c #524520",
"j  c #544721",
"k  c #594A21",
"l  c #5C4D21",
"z  c #47443F",
"x  c #655421",
"c  c #665521",
"v  c #6D5A22",
"b  c #6F5B22",
"n  c #735F22",
"m  c #756022",
"M  c #7E6723",
"N  c #7F6823",
"B  c #424141",
"V  c #454444",
"C  c #464444",
"Z  c #464545",
"A  c #4B4A4A",
"S  c #4D4C4C",
"D  c #4E4C4C",
"F  c #4F4D4D",
"G  c #535150",
"H  c #535252",
"J  c #565452",
"K  c #555454",
"L  c #585656",
"P  c #5B5A5A",
"I  c #5E5D5D",
"U  c #615F5F",
"Y  c #636161",
"T  c #636262",
"R  c #646363",
"E  c #727171",
"W  c #737272",
"Q  c #767474",
"!  c #787777",
"~  c #7B7A7A",
"^  c #806923",
"/  c #826A23",
"(  c #846C23",
")  c #897023",
"_  c #8E7423",
"`  c #927724",
"'  c #947924",
"]  c #977B24",
"[  c #9D7F24",
"{  c #9E8024",
"}  c #A18324",
"|  c #A38424",
" . c #A48525",
".. c #A98925",
"X. c #AE8C25",
"o. c #B49125",
"O. c #B69325",
"+. c #BF9A26",
"@. c #B4932A",
"#. c #C09B26",
"$. c #C29C26",
"%. c #C39D26",
"&. c #C7A026",
"*. c #C8A126",
"=. c #CAA326",
"-. c #CFA727",
";. c #D7AD27",
":. c #D9AE27",
">. c #DCB127",
",. c #DEB227",
"<. c #D4AD33",
"1. c #E2B528",
"2. c #E5B828",
"3. c #E7B928",
"4. c #E7BA28",
"5. c #E8BA28",
"6. c #E9BB28",
"7. c #EEBF28",
"8. c #F1C128",
"9. c #F4C328",
"0. c #F5C428",
"q. c #F7C629",
"w. c #F9C729",
"e. c #FAC829",
"r. c #FCCA29",
"t. c #FDCA29",
"y. c #FECB29",
"u. c #FFCC29",
"i. c #AB975A",
"p. c #A49465",
"a. c #EBC755",
"s. c #818080",
"d. c #848383",
"f. c #888787",
"g. c #898787",
"h. c #898888",
"j. c #8B8A8A",
"k. c #8F8E8E",
"l. c #908F8F",
"z. c #949393",
"x. c #969595",
"c. c #979696",
"v. c #999898",
"b. c #9C9B9B",
"n. c #A09F9F",
"m. c #BFB187",
"M. c #A1A0A0",
"N. c gray63",
"B. c #A3A2A2",
"V. c #A4A3A3",
"C. c #A7A7A7",
"Z. c #A9A8A8",
"A. c #AAAAAA",
"S. c #ABAAAA",
"D. c #ACABAB",
"F. c #ADACAC",
"G. c #AEADAD",
"H. c None",
/* pixels */
"H.H.H.H.H.H.H.H.H.H.H.H.                H.H.H.H.H.H.H.H.H.H.H.H.",
"H.H.H.H.H.H.H.H.H.                            H.H.H.H.H.H.H.H.H.",
"H.H.H.H.H.H.H.                              y Z.C H.H.H.H.H.H.H.",
"H.H.H.H.H.H.                            1 d.v.8     H.H.H.H.H.H.",
"H.H.H.H.H.                            F G.G X X .     H.H.H.H.H.",
"H.H.H.H.                          7 c.g.@.y.y.2.-       H.H.H.H.",
"H.H.H.                l b b b x R A.s ] u.u.8.a           H.H.H.",
"H.H.                  k r.u.u.a.E o M u.u.w.k               H.H.",
"H.H.                    =.u.u.^   c t.u.y.v                 H.H.",
"H.                    z q.u.u.p h q.u.u.(                     H.",
"H.                4 l.m.u.u.6.u 7.u.u.[                       H.",
"H.              P F.Z ' u.u.%.1.u.u.o.O                       H.",
"            0 n.~ ,   -.u.u.y.u.u.*.#                           ",
"        o W V.r     % r.u.u.u.u.:.%                             ",
"      d S.T         c u.u.u.u.3.;                           5 k.",
"  2 f.x.7           } u.u.u.u.+.                          I D.V ",
"H G.D               >.u.u.u.u.r.*                     q M.! o   ",
"s.<               = u.u.9.8.u.u.)                 o Q B.w       ",
"                  n u.u.#.| u.u.,..             B D.U           ",
"                  X.u.u.) g u.u.u.j         3 j.z.6             ",
"H.                5.u.u.h   ;.u.u...      K G.A               H.",
"H.              i u.u.0.@   / u.u.9.$ 9 b.s.<                 H.",
"H.              N u.u.$.    & e.u.u.i.C.t                     H.",
"H.H.            _ &.&.m       O.u.u.<.                      H.H.",
"H.H.                        < p.u.u.y.>                     H.H.",
"H.H.H.                    S G.J 4.u.u.`                   H.H.H.",
"H.H.H.H.              7 x.h.2   :  .w.2.+               H.H.H.H.",
"H.H.H.H.H.          Y S.f           * { j             H.H.H.H.H.",
"H.H.H.H.H.H.    e V.W o                             H.H.H.H.H.H.",
"H.H.H.H.H.H.H.L N.0                               H.H.H.H.H.H.H.",
"H.H.H.H.H.H.H.H.H.                            H.H.H.H.H.H.H.H.H.",
"H.H.H.H.H.H.H.H.H.H.H.H.                H.H.H.H.H.H.H.H.H.H.H.H."
};
