/* XPM */
static char *result[] = {
/* columns rows colors chars-per-pixel */
"64 64 96 2 ",
"   c #201E1E",
".  c #24211E",
"X  c #29251E",
"o  c #2F2A1F",
"O  c #332D1F",
"+  c #3C331F",
"@  c #242222",
"#  c #282626",
"$  c #2C2B2B",
"%  c #312F2F",
"&  c #3F3620",
"*  c #343333",
"=  c #393737",
"-  c #3E3A31",
";  c #3C3A3A",
":  c #453B20",
">  c #483D20",
",  c #413F3F",
"<  c #4D4120",
"1  c #524520",
"2  c #554821",
"3  c #5A4C21",
"4  c #635321",
"5  c #695722",
"6  c #6E5B22",
"7  c #735E22",
"8  c #7B6522",
"9  c #7F6823",
"0  c #444343",
"q  c #484646",
"w  c #4F4B42",
"e  c #4C4A4A",
"r  c #545252",
"t  c #585656",
"y  c #5C5B5B",
"u  c #605E5E",
"i  c #646262",
"p  c #686666",
"a  c #6B6A6A",
"s  c #747373",
"d  c #787676",
"f  c #7D7B7B",
"g  c #856D23",
"h  c #886F23",
"j  c #8E7423",
"k  c #937724",
"l  c #957924",
"z  c #9A7E24",
"x  c #807F7F",
"c  c #9E8024",
"v  c #A48524",
"b  c #AA8A25",
"n  c #B18F26",
"m  c #B59225",
"M  c #BA9726",
"N  c #BD9926",
"B  c #C29C26",
"V  c #CAA326",
"C  c #D4AB27",
"Z  c #D9AF27",
"A  c #D0A92B",
"S  c #DFB327",
"D  c #E2B628",
"F  c #E6B928",
"G  c #EBBC28",
"H  c #EFC028",
"J  c #F4C329",
"K  c #F9C729",
"L  c #FFCC29",
"P  c #978653",
"I  c #838282",
"U  c #8C8B8B",
"Y  c #949393",
"T  c #989797",
"R  c #9C9B9B",
"E  c #B9AB81",
"W  c #ABA491",
"Q  c #A4A3A3",
"!  c #ABABAB",
"~  c #B0AFAF",
"^  c #B3B3B3",
"/  c #BCBBBB",
"(  c #C0BFBF",
")  c #F3D883",
"_  c #F0DC9D",
"`  c #FCE8A9",
"'  c #C5C5C5",
"]  c #CBCACA",
"[  c #D3D3D3",
"{  c #DBDBDB",
"}  c #E0DFDF",
"|  c #E4E3E3",
" . c #E8E7E7",
".. c #ECECEC",
"X. c #F5F5F5",
"o. c None",
/* pixels */
"o.o.o.o.o.o.o.o.o.o.o.o.o.o.o.o.o.o.o.o.o.o.o.o.o.o.o.                    o.o.o.o.o.o.o.o.o.o.o.o.o.o.o.o.o.o.o.o.o.o.o.o.o.o.o.",
"o.o.o.o.o.o.o.o.o.o.o.o.o.o.o.o.o.o.o.o.o.o.                                        o.o.o.o.o.o.o.o.o.o.o.o.o.o.o.o.o.o.o.o.o.o.",
"o.o.o.o.o.o.o.o.o.o.o.o.o.o.o.o.o.o.o.o.                                                o.o.o.o.o.o.o.o.o.o.o.o.o.o.o.o.o.o.o.o.",
"o.o.o.o.o.o.o.o.o.o.o.o.o.o.o.o.o.o.                                                    .   o.o.o.o.o.o.o.o.o.o.o.o.o.o.o.o.o.o.",
"o.o.o.o.o.o.o.o.o.o.o.o.o.o.o.o.                                                          @ 0 ' o.o.o.o.o.o.o.o.o.o.o.o.o.o.o.o.",
"o.o.o.o.o.o.o.o.o.o.o.o.o.o.                                                            # U X.Q $   o.o.o.o.o.o.o.o.o.o.o.o.o.o.",
"o.o.o.o.o.o.o.o.o.o.o.o.o.                                                            r { [ r         o.o.o.o.o.o.o.o.o.o.o.o.o.",
"o.o.o.o.o.o.o.o.o.o.o.                                                            % Q X.U #             o.o.o.o.o.o.o.o.o.o.o.o.",
"o.o.o.o.o.o.o.o.o.o.                                                            a ..' ,                     o.o.o.o.o.o.o.o.o.o.",
"o.o.o.o.o.o.o.o.o.                                                          ; / ..d .   . . . . .             o.o.o.o.o.o.o.o.o.",
"o.o.o.o.o.o.o.o.                                                        @ I X.! - C L K L K L K g               o.o.o.o.o.o.o.o.",
"o.o.o.o.o.o.o.                                                        e [ | y . B L L L L L L c                 o.o.o.o.o.o.o.o.",
"o.o.o.o.o.o.o.                                                    $ R X.T #   b L L L L L L m                     o.o.o.o.o.o.o.",
"o.o.o.o.o.o.                                8 M N N N N N M N l u  .] q     k L L L L L L V X                       o.o.o.o.o.o.",
"o.o.o.o.o.                                  X Z L L L L L L L ) X.f @     8 L L L L L L S X                           o.o.o.o.o.",
"o.o.o.o.o.                                    : J L L L L L L E *       4 L L L L L L F +                             o.o.o.o.o.",
"o.o.o.o.                                        h L L L L L J X       1 J L L L L L H :                                 o.o.o.o.",
"o.o.o.                                          v L L L L L V     . + G L L L L L K 3                                   o.o.o.o.",
"o.o.o.                                          S L L L L L h     O S L L L L L L 6                                       o.o.o.",
"o.o.o.                                      $ W L L L L L L <   X V L L L L L L g                                         o.o.o.",
"o.o.                                      a .._ L L L L L H   . M L L L L L L c                                             o.o.",
"o.o.                                  , ' ..s n L L L L L m   v L L L L L L m                                               o.o.",
"o.                                @ I X.! %   G L L L L L 9 j L L L L L L V X                                                 o.",
"o.                              r { { t     : L L L L L L k L L L L L L Z o                                                   o.",
"o.                          $ Q X.U #       g L L L L L L K L L L L L F +                                                     o.",
"o.                        p  .] 0           M L L L L L L L L L L L J :                                                       o.",
"                      = / ..d @           . J L L L L L L L L L L K 3                                                         o.",
"                  @ f X.^ *               2 L L L L L L L L L L L 6 .                                                           ",
"                q ] | y                   j L L L L L L L L L L g                                                             a ",
"            # T X.R $                     V L L L L L L L L L c                                                           0 ] ..",
"          y | [ e                       X K L L L L L L L L L 2                                                       # U X.Q $ ",
"      * ~ X.I   @                       4 L L L L L L L L L L b                                                     r { { r     ",
"    s ../ ;                             c L L L L L L L L L L J X                                               % Q X.U @       ",
"0 ]  .a                                 C L L L L L L L L L L L 8                                         @   a ..' ,           ",
"X.Q $                                 O L L L L L L L L L L L L V                                         ; ( ..s @             ",
"e                                     6 L L L L L C V L L L L L K +                                   @ I X.~ %                 ",
"                                      v L L L L L c 7 L L L L L L k                                 e [ | y                     ",
"                                    . D L L L L L 5 X J L L L L L F .                           $ R X.Y #                     o.",
"o.                                  + L L L L L L o   v L L L L L L 3                         i | ] q                         o.",
"o.                                  9 L L L L L Z   . < L L L L L L m                     * ^ X.f @ @                         o.",
"o..                                 m L L L L L c       Z L L L L L K o               . f X.^ =                               o.",
"o.                                  H L L L L L 5       g L L L L L L 9             q ] | i                                 . o.",
"o.o.                              > L L L L L L O       O K L L L L L A         # T X.R $                                   o.o.",
"o.o.                              h L L L L L Z           M L L L L L L >     y } [ e @                                     o.o.",
"o.o.o.                            V L L L L L c           4 L L L L L L c % ! X.I @                                       o.o.o.",
"o.o.o.                          . K L L L L L 5           . G L L L L L J ..( ;                                           o.o.o.",
"o.o.o.                          2 L L L L L L O             l L L L L L L P                                             o.o.o.o.",
"o.o.o.o.                        1 j j j j j g               : L L L L L L M                                             o.o.o.o.",
"o.o.o.o.o.                                                    A L L L L L L O                                         o.o.o.o.o.",
"o.o.o.o.o.                                                $ Q ` L L L L L L g                                         o.o.o.o.o.",
"o.o.o.o.o.o.                                            a  .] w J L L L L L Z                                       o.o.o.o.o.o.",
"o.o.o.o.o.o.o.                                      ; / ..d     b L L L L L L 1                                   o.o.o.o.o.o.o.",
"o.o.o.o.o.o.o.                                  @ f X.^ *       X h G L L L L v                                   o.o.o.o.o.o.o.",
"o.o.o.o.o.o.o.o.                              e [ | y               X 9 F L L H X                               o.o.o.o.o.o.o.o.",
"o.o.o.o.o.o.o.o.o.                        $ R X.T #                     . 8 D L 6                             o.o.o.o.o.o.o.o.o.",
"o.o.o.o.o.o.o.o.o.o.                    y | ] e                             . 7 v                           o.o.o.o.o.o.o.o.o.o.",
"o.o.o.o.o.o.o.o.o.o.o.              * ^ X.f @                                                             o.o.o.o.o.o.o.o.o.o.o.",
"o.o.o.o.o.o.o.o.o.o.o.o.o.        d ../ ;                                                             o.o.o.o.o.o.o.o.o.o.o.o.o.",
"o.o.o.o.o.o.o.o.o.o.o.o.o.o.  0 '  .a                                                               o.o.o.o.o.o.o.o.o.o.o.o.o.o.",
"o.o.o.o.o.o.o.o.o.o.o.o.o.o.o.o.! $                                                             o.o.o.o.o.o.o.o.o.o.o.o.o.o.o.o.",
"o.o.o.o.o.o.o.o.o.o.o.o.o.o.o.o.o.                                                            o.o.o.o.o.o.o.o.o.o.o.o.o.o.o.o.o.",
"o.o.o.o.o.o.o.o.o.o.o.o.o.o.o.o.o.o.o.o.                                                o.o.o.o.o.o.o.o.o.o.o.o.o.o.o.o.o.o.o.o.",
"o.o.o.o.o.o.o.o.o.o.o.o.o.o.o.o.o.o.o.o.o.o.                                        o.o.o.o.o.o.o.o.o.o.o.o.o.o.o.o.o.o.o.o.o.o.",
"o.o.o.o.o.o.o.o.o.o.o.o.o.o.o.o.o.o.o.o.o.o.o.o.o.o.                        o.o.o.o.o.o.o.o.o.o.o.o.o.o.o.o.o.o.o.o.o.o.o.o.o.o."
};
