/* XPM */
static char *result[] = {
/* columns rows colors chars-per-pixel */
"16 16 72 1 ",
"  c #201E1E",
". c #211F1F",
"X c #221F1E",
"o c #26231E",
"O c #2E291F",
"+ c #3D351F",
"@ c #232121",
"# c #262422",
"$ c #272525",
"% c #282727",
"& c #2A2726",
"* c #2B2929",
"= c #2B2A2A",
"- c #2D2B2B",
"; c #2F2E2E",
": c #302E2E",
"> c #353333",
", c #373535",
"< c #3A3838",
"1 c #3C3A3A",
"2 c #403720",
"3 c #483D20",
"4 c #584A21",
"5 c #6C5A22",
"6 c #745F22",
"7 c #4F4D4D",
"8 c #545252",
"9 c #565555",
"0 c #5B5A5A",
"q c #5C5A5A",
"w c #605E5E",
"e c #636262",
"r c #646363",
"t c #686767",
"y c #696868",
"u c #6A6868",
"i c #6B6969",
"p c #6B6A6A",
"a c #736E61",
"s c #806923",
"d c #846C23",
"f c #866E23",
"g c #897023",
"h c #8F7423",
"j c #937824",
"k c #947924",
"l c #9C7F24",
"z c #957B2B",
"x c #8A7F60",
"c c #AD8C25",
"v c #B18F25",
"b c #B39125",
"n c #B49125",
"m c #B59225",
"M c #B69325",
"N c #BF9A26",
"B c #AF9030",
"V c #C19C26",
"C c #D6AC27",
"Z c #E7B928",
"A c #E9BB28",
"S c #F0C028",
"D c #F6C529",
"F c #F9C729",
"G c #FBC929",
"H c #FCCA29",
"J c #FECB29",
"K c #FECC29",
"L c #FFCC29",
"P c #928254",
"I c #AD9754",
"U c None",
/* pixels */
"UUUUU      UUUUU",
"UUU       <i%UUU",
"UU      @eIgo UU",
"U    +MBtzJ5   U",
"U    &Sv6Kd    U",
"    8xLnGl      ",
"  >p,fLLnX      ",
".w9  VLAo     ;u",
"y=  oDFJ2    0q ",
"    4LhLk  1p:  ",
"    jHOCZ#r7    ",
"U   mN sLP$    U",
"U     *aFb     U",
"UU   9w.3cO   UU",
"UUU-p>       UUU",
"UUUUU      UUUUU"
};
